<?xml version="1.0" standalone="no"?>
<!DOCTYPE svg PUBLIC "-//W3C//DTD SVG 20010904//EN"
 "http://www.w3.org/TR/2001/REC-SVG-20010904/DTD/svg10.dtd">
<svg version="1.0" xmlns="http://www.w3.org/2000/svg"
 width="1024.000000pt" height="1024.000000pt" viewBox="0 0 1024.000000 1024.000000"
 preserveAspectRatio="xMidYMid meet">
<metadata>
Created by potrace 1.14, written by Peter Selinger 2001-2017
</metadata>
<g transform="translate(0.000000,1024.000000) scale(0.100000,-0.100000)"
fill="#000000" stroke="none">
<path d="M5041 9404 c-65 -17 -104 -45 -163 -116 -61 -75 -67 -89 -81 -179
-11 -77 -13 -81 -57 -118 -81 -69 -139 -196 -140 -303 0 -29 -4 -38 -17 -38
-34 0 -138 -58 -184 -101 -87 -85 -129 -186 -129 -316 l0 -72 -47 -27 c-177
-99 -344 -243 -436 -377 -135 -195 -197 -406 -197 -666 0 -238 29 -363 147
-638 9 -21 -11 -15 -107 31 -123 60 -215 80 -339 73 -107 -6 -157 -22 -241
-78 -157 -105 -240 -280 -240 -509 0 -182 41 -301 146 -425 l54 -64 -15 -86
c-38 -218 58 -398 252 -473 l72 -28 -100 -100 c-155 -153 -269 -310 -379 -523
-30 -58 -60 -106 -66 -106 -6 0 -23 14 -37 30 l-25 31 20 79 c42 167 24 324
-50 435 l-37 55 -5 155 c-5 131 -9 163 -27 203 -61 133 -230 212 -348 163 -18
-8 -36 -12 -38 -9 -3 2 -35 5 -71 4 -131 -1 -206 -73 -231 -221 l-11 -64 -48
-17 c-93 -34 -163 -109 -194 -208 -21 -70 -24 -354 -4 -446 8 -33 39 -111 69
-173 49 -97 65 -120 122 -170 36 -33 76 -64 89 -71 12 -6 22 -19 22 -27 0 -24
49 -164 63 -180 21 -23 31 -37 82 -114 123 -187 366 -469 416 -485 11 -4 33
-32 48 -63 16 -31 41 -72 55 -91 31 -41 23 -51 -44 -51 -25 0 -88 -9 -140 -20
-52 -11 -120 -25 -150 -31 -83 -16 -299 -118 -430 -203 -191 -123 -346 -318
-412 -516 -31 -91 -32 -102 -33 -260 0 -156 2 -169 28 -240 40 -109 82 -174
172 -265 90 -91 178 -141 300 -172 66 -16 264 -17 3185 -17 3468 0 3172 -6
3318 68 193 97 328 287 363 511 15 92 5 253 -20 340 -83 286 -298 513 -626
665 -50 23 -99 47 -110 52 -47 25 -265 75 -370 85 -107 9 -110 11 -80 54 13
20 38 64 55 97 21 43 39 63 61 72 36 15 172 160 268 287 136 178 229 330 258
420 20 60 34 88 48 93 36 15 151 136 182 193 47 86 81 178 92 248 28 177 18
364 -26 462 -32 70 -110 144 -163 153 -59 11 -70 21 -70 64 0 83 -52 173 -127
217 -39 22 -59 27 -132 29 -47 1 -110 5 -139 9 -72 10 -150 -16 -211 -71 -86
-77 -118 -184 -106 -352 l7 -93 -41 -58 c-78 -112 -103 -288 -61 -439 11 -39
20 -80 20 -91 0 -22 -50 -66 -61 -54 -4 4 -34 60 -66 123 -105 204 -235 376
-393 523 -46 42 -81 78 -79 80 2 2 31 14 64 27 118 46 204 130 248 244 23 61
27 186 8 263 l-13 53 44 52 c83 99 124 178 148 286 16 67 13 259 -5 327 -65
253 -259 415 -498 415 -109 0 -204 -25 -325 -86 -114 -58 -114 -58 -67 36 49
100 98 266 116 388 19 136 7 385 -25 507 -28 106 -88 239 -155 343 -88 135
-278 306 -421 377 -30 15 -56 29 -58 30 -2 2 -5 34 -7 71 -3 38 -10 92 -16
119 -15 69 -79 175 -132 218 -44 36 -155 97 -176 97 -6 0 -11 15 -11 33 0 53
-35 162 -68 214 -17 26 -54 70 -82 98 -45 45 -50 53 -50 95 0 97 -100 239
-204 289 -56 27 -111 32 -175 15z m124 -236 c19 -18 37 -45 41 -60 7 -32 -4
-35 -118 -30 -88 4 -94 11 -58 70 36 59 85 66 135 20z m145 -313 c48 -25 100
-112 100 -167 0 -5 -135 -8 -300 -8 -291 0 -300 1 -300 20 0 46 61 145 98 159
15 5 105 10 200 10 135 1 179 -2 202 -14z m268 -404 c75 -28 116 -62 146 -123
44 -88 34 -100 -59 -78 -22 5 -100 10 -174 10 l-134 1 -74 65 c-88 76 -125 97
-175 97 -43 0 -110 -41 -192 -115 l-49 -45 -136 0 c-75 -1 -165 -6 -200 -12
-34 -7 -64 -11 -66 -9 -8 10 37 114 61 140 36 37 54 47 131 72 60 20 84 21
465 19 377 -1 406 -3 456 -22z m-323 -395 c43 -20 86 -50 111 -78 51 -55 56
-63 90 -164 l27 -81 76 -7 c220 -18 395 -99 573 -265 42 -39 80 -71 86 -71 18
0 62 60 62 84 0 106 -158 272 -349 366 -71 36 -121 53 -233 81 -39 9 -54 20
-88 64 -22 28 -40 55 -40 58 0 10 89 -3 160 -24 203 -60 387 -185 513 -350 45
-59 125 -231 149 -320 19 -71 23 -109 23 -244 0 -149 -14 -264 -36 -288 -4 -5
-12 8 -19 30 -21 64 -115 222 -192 323 -90 117 -279 262 -408 313 -143 56
-177 62 -330 62 -105 -1 -162 -6 -206 -18 -81 -22 -134 -21 -257 4 -300 62
-658 -63 -868 -302 -94 -107 -199 -279 -239 -393 l-18 -49 -22 96 c-19 83 -22
116 -18 249 6 182 32 289 105 422 87 157 169 244 325 347 109 71 318 149 401
149 l28 0 -41 -60 c-40 -56 -45 -60 -99 -70 -186 -36 -390 -153 -509 -292 -86
-100 -95 -175 -28 -229 20 -16 23 -15 89 48 95 89 170 143 268 191 94 46 154
64 304 88 l104 17 12 51 c26 114 121 229 225 271 91 38 179 35 269 -9z m280
-720 c74 -7 188 -49 260 -96 62 -41 152 -127 142 -136 -3 -3 -40 13 -83 35
-105 53 -209 86 -321 101 -101 14 -164 8 -336 -32 l-87 -20 -108 25 c-59 14
-132 28 -163 32 -125 14 -313 -31 -481 -116 -48 -24 -78 -34 -78 -27 0 7 26
38 59 68 157 150 405 206 641 145 116 -30 126 -30 231 -4 89 23 194 37 244 32
17 -1 53 -4 80 -7z m-635 -321 c52 -8 119 -21 149 -29 49 -14 62 -13 149 5
158 32 257 40 352 28 161 -21 295 -98 401 -229 58 -73 83 -119 133 -250 47
-122 84 -177 160 -245 l61 -55 -1 -347 0 -348 -27 -88 c-57 -184 -147 -310
-312 -437 -59 -45 -159 -97 -205 -107 l-33 -6 7 34 c15 73 36 257 37 322 1 76
-10 97 -51 97 -58 0 -131 -93 -176 -225 -49 -148 -45 -491 8 -633 48 -124 129
-222 226 -269 47 -22 74 -28 149 -31 88 -4 95 -2 175 33 46 20 122 50 171 66
237 79 463 0 583 -205 83 -141 88 -333 12 -458 -66 -108 -181 -158 -291 -127
-74 20 -160 133 -140 185 3 8 26 16 54 20 39 5 55 14 79 41 87 98 -34 232
-176 194 -56 -15 -110 -59 -158 -127 -35 -49 -50 -61 -101 -82 -286 -115 -629
-34 -913 214 -90 78 -216 252 -278 382 -56 117 -79 188 -174 542 -80 293 -183
480 -265 480 -44 0 -60 -32 -52 -102 18 -157 29 -229 41 -283 8 -33 11 -64 7
-68 -12 -12 -143 46 -220 97 -110 73 -223 201 -284 323 -15 28 -38 94 -52 146
-24 93 -25 104 -25 429 0 183 4 338 8 343 4 6 29 27 55 49 64 51 109 121 156
241 55 139 107 228 171 295 102 104 215 163 355 185 107 17 125 17 235 0z
m-1409 -686 c64 -28 146 -78 194 -121 l36 -31 -7 -86 c-4 -47 -8 -87 -9 -89
-2 -2 -22 9 -45 23 -146 92 -280 64 -280 -58 0 -52 38 -87 93 -87 52 0 145
-51 193 -106 29 -33 32 -42 38 -137 9 -128 36 -247 83 -355 20 -47 32 -87 27
-92 -21 -20 -143 -83 -198 -102 -73 -24 -193 -21 -266 7 -131 52 -197 197
-142 315 25 52 28 119 8 158 -8 15 -40 52 -71 82 -108 104 -153 249 -126 406
25 142 106 244 230 291 53 20 174 11 242 -18z m3514 3 c145 -69 223 -240 197
-429 -15 -104 -50 -173 -132 -257 -99 -102 -103 -124 -53 -257 25 -66 25 -67
8 -125 -52 -182 -315 -251 -515 -136 -25 14 -59 36 -77 49 l-31 24 33 77 c42
97 73 237 81 367 l7 100 46 45 c56 55 105 80 179 90 40 5 61 14 74 30 60 74 4
170 -99 170 -46 0 -130 -29 -175 -61 -15 -11 -28 -17 -29 -12 0 4 -2 17 -4 28
-1 11 -6 50 -9 86 l-6 67 49 36 c184 132 332 167 456 108z m-4625 -1237 c40
-21 60 -63 60 -130 0 -61 0 -61 -72 -68 l-48 -5 0 103 c0 124 3 129 60 100z
m5505 3 c2 -7 6 -55 8 -105 l4 -93 -57 0 -58 0 -6 44 c-11 71 10 127 56 153
30 16 48 16 53 1z m186 -8 c48 -26 73 -160 63 -338 -7 -108 -8 -114 -31 -123
-43 -16 -48 -11 -62 64 -19 97 -26 374 -10 393 14 17 15 17 40 4z m-5886 -22
c2 -13 6 -86 7 -163 2 -113 -2 -154 -18 -214 -11 -41 -25 -76 -31 -78 -7 -3
-24 7 -38 21 -24 24 -25 29 -25 158 0 140 13 246 33 279 17 28 65 26 72 -3z
m1832 -129 c48 -47 102 -95 118 -106 29 -21 30 -25 37 -120 4 -54 11 -122 17
-150 25 -134 138 -375 226 -483 140 -174 263 -261 485 -339 95 -34 126 -41
194 -42 75 -1 86 -3 146 -38 36 -21 95 -55 133 -75 37 -20 67 -39 67 -42 0 -2
-17 -4 -37 -3 -21 1 -87 -6 -147 -15 -140 -21 -190 -20 -301 4 -103 22 -144
35 -236 79 -36 17 -69 31 -73 31 -9 0 -80 52 -84 63 -2 4 -10 7 -18 7 -7 0
-23 14 -36 30 -12 17 -28 30 -35 30 -7 0 -13 6 -13 13 0 8 -11 20 -25 27 -14
7 -25 17 -25 21 0 5 -19 31 -42 58 -98 113 -158 194 -158 211 0 6 -4 10 -10
10 -5 0 -10 9 -10 20 0 11 -4 20 -10 20 -5 0 -10 7 -10 15 0 8 -4 15 -10 15
-13 0 -14 1 16 -59 23 -50 61 -109 75 -121 4 -3 9 -15 13 -26 4 -12 24 -39 45
-60 21 -22 36 -45 33 -53 -3 -10 0 -12 13 -7 13 5 16 2 11 -9 -3 -9 1 -18 9
-21 8 -4 15 -13 15 -21 0 -8 4 -12 9 -8 5 3 12 -4 16 -14 3 -11 29 -38 58 -60
29 -22 60 -47 70 -55 9 -9 23 -16 31 -16 7 0 21 -11 30 -25 9 -14 23 -25 31
-25 8 0 15 -3 15 -7 0 -8 16 -16 120 -62 60 -27 155 -51 202 -51 21 0 38 -4
38 -10 0 -16 289 -13 352 4 83 23 118 37 112 47 -9 15 25 10 126 -17 183 -49
385 -44 543 13 38 14 71 22 74 20 6 -7 19 -58 43 -170 10 -49 26 -111 36 -139
20 -60 28 -54 -121 -107 -183 -66 -402 -116 -630 -143 -147 -17 -691 -17 -850
0 -159 17 -365 56 -495 93 -103 30 -266 91 -282 107 -4 4 -1 32 6 62 8 30 17
67 20 81 4 17 15 29 30 33 38 9 140 117 168 177 54 115 65 277 26 388 -38 108
-135 198 -235 219 -30 6 -39 13 -41 32 -2 14 -10 46 -18 72 -49 151 -195 223
-325 160 l-47 -23 -36 22 c-44 26 -136 35 -195 19 -57 -15 -144 -100 -161
-156 -6 -21 -14 -101 -17 -176 -5 -111 -9 -138 -21 -138 -15 0 -111 46 -125
60 -10 9 39 110 116 240 143 243 204 315 412 492 63 53 102 79 225 152 63 37
140 83 170 101 30 18 56 33 57 32 1 -1 42 -41 90 -88z m2725 -199 c157 -126
269 -253 370 -417 47 -76 71 -118 144 -253 19 -34 17 -64 -4 -83 -24 -22 -106
-57 -113 -49 -3 4 -11 34 -18 67 -6 33 -28 96 -50 140 -72 150 -162 246 -307
326 -56 31 -60 36 -51 57 22 50 -43 112 -118 112 -44 0 -118 -30 -150 -60 -18
-17 -54 -26 -180 -45 -22 -4 -88 -27 -148 -52 -59 -25 -109 -44 -112 -42 -2 3
8 38 21 79 18 52 27 107 31 180 6 101 7 106 37 135 93 89 126 115 126 100 0
-13 2 -14 14 -3 8 7 10 15 5 18 -5 3 5 22 21 42 l30 36 186 -112 c102 -62 222
-141 266 -176z m-4794 58 c7 -7 12 -41 12 -82 1 -163 52 -241 171 -260 33 -6
38 -11 48 -49 17 -68 45 -104 90 -118 36 -11 43 -10 61 6 19 17 20 29 18 179
-3 145 -1 164 17 194 24 40 50 41 98 5 140 -108 92 -409 -86 -532 -58 -39
-148 -65 -201 -57 -203 32 -336 258 -324 551 5 107 17 147 52 163 28 14 30 14
44 0z m6363 -1 c9 -7 24 -28 34 -47 16 -30 17 -52 12 -175 -6 -150 -19 -210
-60 -291 -29 -57 -116 -141 -174 -169 -53 -26 -177 -32 -226 -12 -91 38 -167
130 -207 249 -41 123 -16 257 60 322 40 33 55 33 92 -5 l31 -30 -6 -159 c-6
-156 -6 -158 18 -180 21 -20 27 -21 58 -11 45 15 66 40 88 103 17 50 20 54 66
67 109 30 150 91 159 233 3 51 7 99 10 106 4 15 24 15 45 -1z m-3705 -174 c7
-15 29 -81 48 -145 52 -167 138 -333 253 -490 l34 -48 -40 15 c-134 47 -296
185 -380 323 -72 120 -141 313 -141 397 l0 32 107 -28 c97 -24 108 -30 119
-56z m1250 54 c-38 -184 -37 -180 -56 -162 -23 21 -63 118 -58 141 3 17 95 56
111 47 4 -2 5 -14 3 -26z m-2460 -478 l29 -30 5 -165 c5 -149 7 -167 24 -180
28 -20 60 -17 82 7 17 18 19 40 22 168 3 177 5 187 40 205 23 12 31 12 53 0
15 -7 30 -21 35 -31 4 -10 11 -97 14 -193 6 -198 13 -223 73 -255 28 -15 41
-17 54 -9 27 16 50 72 56 133 3 29 8 56 12 59 10 10 38 -12 63 -49 21 -29 23
-44 20 -104 -6 -126 -69 -210 -181 -242 -29 -8 -123 -18 -212 -21 -88 -4 -166
-11 -174 -16 -20 -13 -43 -75 -36 -99 21 -76 58 -94 210 -101 59 -3 110 -7
112 -10 9 -9 -15 -65 -52 -121 -77 -115 -202 -205 -332 -239 -305 -79 -575
137 -576 459 0 123 48 319 108 434 l15 30 72 -33 c40 -18 106 -42 145 -52 66
-17 77 -17 115 -4 76 27 83 46 86 251 l4 179 30 30 c37 38 47 37 84 -1z m4225
-166 c12 -15 12 -16 -8 -11 -20 5 -21 3 -18 -41 3 -25 5 -56 5 -68 0 -14 9
-24 26 -30 23 -8 24 -10 10 -28 -14 -17 -17 -18 -26 -5 -5 8 -10 10 -10 4 0
-6 7 -17 15 -24 8 -7 17 -28 21 -49 8 -45 21 -71 36 -71 6 0 4 10 -6 25 -17
26 -22 80 -7 71 5 -3 7 -15 4 -26 -3 -11 -1 -20 5 -20 6 0 14 -16 18 -35 3
-19 10 -33 14 -30 5 3 12 0 17 -7 4 -7 34 -30 65 -52 46 -30 56 -41 49 -55
-11 -20 -130 -155 -140 -159 -4 -1 -13 39 -20 90 -11 85 -18 119 -49 243 -6
22 -20 67 -33 99 -17 43 -20 61 -11 64 16 5 15 24 -3 48 -15 19 -16 19 -14 -1
3 -37 -1 -40 -16 -11 -15 28 -14 30 17 62 39 38 41 39 59 17z m-5009 -1 c-8
-5 -10 -16 -5 -28 6 -16 5 -17 -9 -6 -11 9 -18 10 -23 2 -3 -5 -1 -10 4 -10 6
0 11 -7 11 -15 0 -8 -4 -15 -10 -15 -5 0 -10 5 -10 10 0 6 -9 1 -20 -10 -11
-11 -20 -24 -20 -28 0 -19 -25 -59 -51 -79 -26 -22 -126 -56 -161 -55 -10 1
-18 -3 -18 -8 0 -5 -12 -8 -27 -7 -19 2 -35 13 -50 36 -13 19 -22 36 -20 37 2
2 23 6 47 9 70 9 120 25 190 61 87 45 100 54 129 87 14 15 32 27 41 27 11 0
12 -2 2 -8z m46 -32 c12 -12 22 -25 22 -30 0 -16 -40 13 -41 30 0 10 -3 8 -9
-5 -8 -19 -9 -19 -9 3 -1 27 9 28 37 2z m5027 -27 c76 -47 188 -94 250 -103
38 -6 71 -12 72 -14 2 -1 -13 -25 -32 -52 -21 -30 -35 -42 -35 -31 0 11 -8 17
-22 17 -33 1 -147 42 -190 69 -37 23 -41 28 -41 64 0 12 -3 14 -12 7 -8 -6
-15 -6 -23 2 -17 17 -15 31 3 24 22 -8 18 11 -5 27 -11 8 -17 17 -13 21 4 4
12 1 18 -6 6 -7 19 -19 30 -25z m-5075 -28 c-7 -9 -15 -13 -17 -11 -6 6 20 36
26 30 2 -2 -2 -10 -9 -19z m33 10 c-3 -9 -8 -14 -10 -11 -3 3 -2 9 2 15 9 16
15 13 8 -4z m4997 -41 c0 -8 -4 -12 -10 -9 -5 3 -10 10 -10 16 0 5 5 9 10 9 6
0 10 -7 10 -16z m-5023 -26 c-3 -8 -6 -5 -6 6 -1 11 2 17 5 13 3 -3 4 -12 1
-19z m4783 -150 c41 -107 80 -290 80 -376 0 -134 -61 -275 -154 -357 -193
-171 -481 -150 -676 48 -61 62 -140 185 -140 220 0 17 5 18 43 10 54 -10 150
-7 207 9 165 44 314 204 351 378 11 51 29 70 66 70 11 0 55 18 98 39 44 22 83
40 87 40 3 1 21 -36 38 -81z m316 7 c4 -21 3 -27 -4 -20 -6 6 -14 24 -18 40
-4 21 -3 27 4 20 6 -5 14 -23 18 -40z m-5155 -137 c-17 -78 -31 -154 -31 -168
-1 -22 -7 -18 -60 40 -67 73 -124 168 -90 150 19 -10 72 12 111 46 8 8 20 14
25 14 14 0 64 46 64 58 0 6 -8 9 -17 6 -15 -5 -16 -4 -3 5 31 22 31 -11 1
-151z m-39 110 c-8 -8 -9 -4 -5 13 4 13 8 18 11 10 2 -7 -1 -18 -6 -23z m-222
12 c0 -5 -2 -10 -4 -10 -3 0 -8 5 -11 10 -3 6 -1 10 4 10 6 0 11 -4 11 -10z
m5549 -31 c-29 -18 -44 -9 -19 11 15 11 26 15 29 8 2 -6 -3 -14 -10 -19z
m-5499 11 c0 -5 -5 -10 -11 -10 -5 0 -7 5 -4 10 3 6 8 10 11 10 2 0 4 -4 4
-10z m25 -31 c11 -17 -1 -21 -15 -4 -8 9 -8 15 -2 15 6 0 14 -5 17 -11z m45
-28 c0 -6 -9 -9 -19 -8 -11 0 -17 5 -15 9 7 11 34 10 34 -1z m1445 -680 c28
-10 89 -35 137 -55 92 -39 179 -60 428 -106 233 -43 367 -53 680 -54 401 0
544 18 979 120 51 12 225 77 297 110 14 6 56 -35 48 -47 -8 -14 -142 -98 -213
-134 -135 -69 -263 -121 -346 -141 -33 -8 -70 -18 -82 -24 -12 -5 -102 -22
-200 -37 -168 -26 -196 -28 -488 -27 -284 1 -324 3 -475 27 -166 26 -294 57
-405 97 -139 49 -445 222 -445 251 0 7 8 18 18 25 9 7 17 14 17 14 0 0 23 -9
50 -19z m-282 -202 c-11 -12 -27 -19 -34 -17 -9 3 -3 10 16 20 41 22 43 21 18
-3z m195 -66 c28 -18 52 -39 52 -46 0 -17 -105 -100 -200 -158 -139 -85 -260
-149 -280 -149 -12 0 -60 15 -108 33 -266 103 -438 121 -581 63 -78 -32 -124
-66 -156 -116 -39 -61 -40 -81 -7 -122 l29 -37 44 30 c116 77 226 88 420 40
111 -27 190 -54 312 -107 32 -14 102 -39 155 -56 53 -16 147 -49 207 -73 61
-24 129 -48 153 -54 23 -7 42 -14 42 -16 0 -3 -12 -49 -26 -102 -22 -83 -25
-111 -19 -179 7 -97 15 -90 -136 -106 l-107 -11 10 -28 c5 -15 16 -33 24 -40
8 -6 14 -20 14 -30 0 -17 -16 -18 -277 -16 -265 2 -324 8 -292 28 10 6 11 9 2
9 -7 0 -13 4 -13 9 0 5 9 7 20 4 15 -4 19 -2 14 10 -3 9 -11 17 -17 20 -19 7
-196 2 -203 -6 -4 -4 2 -7 14 -7 11 0 24 -4 27 -10 3 -5 1 -10 -4 -10 -6 0
-11 -5 -11 -11 0 -6 8 -8 18 -5 16 6 16 5 0 -7 -10 -8 -15 -17 -11 -21 13 -13
-330 -3 -367 10 l-35 13 32 0 c31 1 31 2 22 33 -11 41 -19 45 -87 47 -31 1
-65 4 -75 7 -16 5 -18 2 -12 -18 4 -12 19 -38 32 -56 14 -18 22 -36 18 -40
-10 -11 -374 -3 -435 9 -229 45 -387 294 -351 553 40 283 259 520 613 660 76
30 260 71 363 81 77 8 105 11 180 20 56 7 145 -15 167 -43 11 -13 10 -15 -10
-10 -23 6 -82 -19 -82 -34 0 -5 -6 -8 -13 -8 -8 0 -22 -9 -32 -19 -17 -19 -16
-21 36 -53 66 -41 142 -68 191 -68 47 0 195 33 230 51 10 5 24 9 32 9 52 0
333 120 343 146 3 8 12 14 20 14 13 0 13 4 -2 27 l-18 26 39 -23 c22 -13 63
-39 92 -57z m2774 59 c-23 -18 -23 -18 -3 -36 12 -11 27 -15 40 -11 17 5 20 3
14 -11 -5 -14 -2 -16 15 -12 12 4 20 2 17 -2 -6 -10 77 -52 199 -100 56 -23
95 -32 133 -31 38 0 53 -4 53 -13 0 -14 42 -22 177 -33 60 -4 83 -3 83 6 0 6
9 11 21 11 11 0 35 15 53 33 18 18 37 32 44 29 31 -10 7 28 -40 63 -39 29 -62
39 -88 38 -32 -1 -33 0 -16 13 35 25 128 46 176 40 25 -3 92 -11 150 -16 58
-5 123 -14 145 -19 22 -6 81 -20 130 -31 213 -51 432 -181 562 -333 64 -74
103 -140 140 -233 25 -63 27 -81 28 -209 l0 -140 -37 -75 c-70 -142 -168 -224
-305 -256 -77 -18 -432 -22 -442 -5 -4 5 -23 8 -43 7 -21 -2 -35 1 -32 5 3 5
22 9 42 9 31 0 41 6 60 33 12 18 22 37 22 43 0 5 -35 8 -80 6 l-80 -4 -20 -41
c-21 -44 -20 -57 5 -37 13 11 14 10 10 -3 -4 -8 -16 -18 -28 -21 -42 -11 -366
-7 -386 6 -14 9 -35 9 -89 0 -41 -7 -179 -12 -327 -12 -240 0 -255 1 -246 18
4 9 13 32 19 50 12 37 1 48 -43 40 l-24 -5 6 78 c8 101 -8 161 -56 219 -36 43
-38 48 -33 102 l4 56 47 12 c25 6 53 17 61 25 16 14 190 75 215 75 8 0 43 13
77 29 80 38 189 79 253 96 28 7 86 23 130 35 143 39 242 28 364 -42 l55 -30
28 31 c35 39 35 54 -2 118 -33 57 -62 81 -147 121 -54 25 -67 27 -183 26 -114
-1 -135 -4 -240 -37 -63 -20 -147 -49 -186 -65 -46 -19 -83 -27 -103 -24 -17
2 -29 7 -27 11 2 3 -48 33 -112 66 -65 33 -119 62 -122 65 -3 3 -30 24 -61 46
-30 23 -76 60 -102 82 l-47 41 32 25 c37 28 149 96 157 96 3 0 -4 -8 -17 -18z
m95 3 c0 -8 -4 -12 -9 -9 -5 3 -6 10 -3 15 9 13 12 11 12 -6z m-3122 -25 c-3
-5 -11 -10 -16 -10 -6 0 -7 5 -4 10 3 6 11 10 16 10 6 0 7 -4 4 -10z m3145 0
c0 -5 -8 -10 -17 -10 -15 0 -16 2 -3 10 19 12 20 12 20 0z m40 -10 c-8 -5 -19
-10 -25 -10 -5 0 -3 5 5 10 8 5 20 10 25 10 6 0 3 -5 -5 -10z m-3223 -6 c-3
-3 -12 -4 -19 -1 -8 3 -5 6 6 6 11 1 17 -2 13 -5z m3256 -11 c-5 -13 -2 -15
14 -11 24 6 147 -24 138 -34 -4 -3 -19 -3 -33 1 -15 5 -33 6 -39 4 -7 -3 -13
1 -13 9 0 10 -3 9 -10 -2 -7 -11 -10 -11 -10 -2 0 7 -8 13 -17 12 -42 -4 -80
21 -50 33 22 9 26 7 20 -10z m-76 1 c-3 -3 -12 -4 -19 -1 -8 3 -5 6 6 6 11 1
17 -2 13 -5z m-3285 -36 c-17 -8 -26 -8 -34 0 -9 9 -4 12 23 11 32 0 33 -1 11
-11z m-69 -5 c-7 -2 -21 -2 -30 0 -10 3 -4 5 12 5 17 0 24 -2 18 -5z m204 1
c-3 -3 -12 -4 -19 -1 -8 3 -5 6 6 6 11 1 17 -2 13 -5z m3641 -1 c-10 -2 -26
-2 -35 0 -10 3 -2 5 17 5 19 0 27 -2 18 -5z m-180 -20 c-10 -2 -26 -2 -35 0
-10 3 -2 5 17 5 19 0 27 -2 18 -5z m-3775 -30 c-13 -2 -33 -2 -45 0 -13 2 -3
4 22 4 25 0 35 -2 23 -4z m97 -3 c0 -5 -4 -10 -10 -10 -5 0 -10 5 -10 10 0 6
5 10 10 10 6 0 10 -4 10 -10z m3758 3 c-21 -2 -57 -2 -80 0 -24 2 -7 4 37 4
44 0 63 -2 43 -4z m302 -3 c0 -5 -2 -10 -4 -10 -3 0 -8 5 -11 10 -3 6 -1 10 4
10 6 0 11 -4 11 -10z m-4257 -7 c-7 -2 -21 -2 -30 0 -10 3 -4 5 12 5 17 0 24
-2 18 -5z m3775 0 c-10 -2 -28 -2 -40 0 -13 2 -5 4 17 4 22 1 32 -1 23 -4z
m-3641 -19 c-3 -3 -12 -4 -19 -1 -8 3 -5 6 6 6 11 1 17 -2 13 -5z m100 0 c-3
-3 -12 -4 -19 -1 -8 3 -5 6 6 6 11 1 17 -2 13 -5z m3628 -14 c-3 -5 -14 -10
-23 -9 -14 0 -13 2 3 9 27 11 27 11 20 0z m-703 -32 c48 -46 99 -90 132 -113
16 -11 43 -32 61 -47 18 -16 36 -28 40 -28 4 0 21 -10 38 -22 18 -13 38 -21
45 -20 8 2 11 -1 7 -7 -3 -6 -1 -11 5 -11 6 0 20 -9 32 -20 l21 -20 -34 -14
c-19 -7 -80 -29 -136 -47 l-102 -33 -84 42 c-58 29 -100 59 -142 102 -33 34
-81 82 -108 108 -27 26 -44 49 -39 54 5 5 53 29 107 53 54 24 100 47 103 50
10 10 20 5 54 -27z m-3192 12 c0 -5 -7 -7 -15 -4 -8 4 -15 8 -15 10 0 2 7 4
15 4 8 0 15 -4 15 -10z m1040 -35 c47 -21 91 -43 99 -48 10 -9 -21 -44 -145
-165 -146 -141 -161 -153 -189 -149 -46 7 -297 97 -320 114 -20 15 -19 15 4
10 27 -7 100 23 121 48 7 8 17 15 22 15 16 0 225 165 262 208 15 17 48 10 146
-33z m460 -130 c52 -9 100 -20 107 -23 7 -5 -4 -24 -34 -57 -45 -49 -82 -119
-119 -225 -15 -43 -19 -82 -18 -180 1 -151 30 -272 93 -398 23 -45 41 -84 41
-87 0 -3 -27 -5 -61 -3 -60 3 -61 4 -83 43 -12 22 -27 58 -34 80 -7 22 -17 49
-22 60 -5 11 -14 32 -19 47 -9 25 -12 26 -40 17 -17 -6 -63 -16 -103 -23 -84
-14 -84 -15 -43 -121 45 -115 49 -106 -47 -103 l-83 3 -27 49 c-14 27 -34 88
-44 134 -17 79 -17 89 -1 162 20 97 47 156 99 214 36 42 157 132 221 165 38
20 26 26 -15 8 -31 -15 -143 -37 -183 -37 -13 0 5 23 57 78 42 42 97 101 124
131 84 93 84 93 112 88 15 -2 70 -12 122 -22z m1264 -21 c16 -25 44 -62 63
-82 18 -19 30 -39 26 -43 -12 -11 -161 -40 -210 -41 -23 -1 -53 6 -67 15 -25
17 -106 127 -106 145 0 5 37 14 83 21 45 6 96 15 112 20 57 17 69 13 99 -35z
m-657 -109 c49 -14 145 -72 188 -112 63 -59 147 -119 195 -141 75 -33 177 -40
254 -18 252 73 365 75 431 6 21 -22 29 -40 29 -66 0 -51 -22 -64 -108 -64 -76
0 -89 -5 -99 -34 -18 -48 27 -76 126 -76 90 0 156 -45 157 -108 0 -39 -14 -70
-44 -94 -16 -14 -41 -18 -111 -18 -98 0 -109 -4 -119 -38 -11 -35 8 -49 80
-57 150 -16 24 -24 -396 -26 -440 -1 -446 -1 -505 21 -33 12 -64 26 -70 30
-22 17 -203 88 -255 99 -30 7 -68 16 -85 20 -24 5 -37 19 -62 66 -92 170 -98
360 -16 473 50 67 132 124 208 143 52 12 149 10 202 -6z m-2197 -821 c0 -2
-15 -4 -32 -3 -27 0 -29 2 -13 8 18 8 45 4 45 -5z m850 5 c0 -8 5 -8 15 1 19
16 20 3 1 -15 -10 -10 -16 -11 -25 -2 -14 14 -14 27 -1 27 6 0 10 -5 10 -11z
m-800 -9 c0 -13 -11 -13 -30 0 -12 8 -11 10 8 10 12 0 22 -4 22 -10z m690 6
c0 -2 -18 -6 -39 -8 -22 -2 -37 0 -35 4 5 8 74 11 74 4z m80 -6 c0 -5 -6 -10
-14 -10 -8 0 -18 5 -21 10 -3 6 3 10 14 10 12 0 21 -4 21 -10z m2707 -12 c-3
-8 -6 -5 -6 6 -1 11 2 17 5 13 3 -3 4 -12 1 -19z"/>
<path d="M4331 6223 c-49 -24 -76 -88 -61 -144 16 -58 63 -99 113 -99 48 0
111 34 126 67 28 61 0 144 -59 175 -43 22 -75 23 -119 1z"/>
<path d="M5785 6226 c-45 -20 -67 -50 -72 -100 -14 -116 81 -180 186 -126 30
15 43 30 56 64 10 25 15 56 11 69 -9 36 -46 78 -82 93 -41 17 -60 17 -99 0z"/>
<path d="M3446 5748 c-3 -13 -6 -89 -6 -170 0 -139 1 -148 22 -168 33 -30 64
-35 107 -15 55 24 86 83 85 160 -1 91 -39 147 -135 195 -49 26 -65 25 -73 -2z"/>
<path d="M6681 5738 c-30 -18 -68 -52 -84 -76 -28 -38 -31 -50 -31 -112 1 -58
6 -76 27 -109 49 -73 140 -79 174 -11 13 27 18 234 7 303 -8 47 -23 47 -93 5z"/>
<path d="M3260 1514 c0 -2 7 -18 16 -37 15 -32 17 -33 77 -31 66 1 80 13 59
51 -8 14 -25 18 -81 19 -39 1 -71 0 -71 -2z"/>
<path d="M6793 1498 c-4 -7 -8 -25 -9 -40 -1 -22 3 -28 20 -28 17 0 18 2 6 10
-11 7 -7 10 18 10 17 0 32 5 32 10 0 6 9 10 21 10 14 0 19 -5 16 -15 -4 -8 -2
-17 3 -20 9 -6 40 44 40 65 0 15 -137 13 -147 -2z"/>
<path d="M7145 1490 c-4 -6 5 -10 20 -10 15 0 24 4 20 10 -3 6 -12 10 -20 10
-8 0 -17 -4 -20 -10z"/>
<path d="M7200 1491 c0 -5 6 -12 13 -14 6 -3 -2 -6 -20 -6 -17 -1 -34 -5 -38
-10 -7 -13 27 -17 103 -13 53 3 61 6 51 18 -9 12 -6 14 20 14 17 0 31 5 31 10
0 6 -33 10 -80 10 -44 0 -80 -4 -80 -9z"/>
<path d="M4430 2190 l-25 -8 27 -1 c15 -1 30 4 33 9 7 11 0 11 -35 0z"/>
</g>
</svg>
